SplineFontDB: 3.2
FontName: DSEG7Classic-BoldItalic
FullName: DSEG7 Classic Bold Italic
FamilyName: DSEG7 Classic
Weight: Bold
Copyright: Created by Keshikan\nwith FontForge 2.0 (http://fontforge.sf.net)
Version: 0.46
ItalicAngle: -5
UnderlinePosition: -150
UnderlineWidth: 50
Ascent: 1000
Descent: 0
InvalidEm: 0
sfntRevision: 0x000075c2
LayerCount: 2
Layer: 0 1 "Back" 1
Layer: 1 1 "Fore" 0
XUID: [1021 342 1311257591 29644]
StyleMap: 0x0021
FSType: 8
OS2Version: 4
OS2_WeightWidthSlopeOnly: 0
OS2_UseTypoMetrics: 1
CreationTime: 1409488158
ModificationTime: 1774189578
PfmFamily: 17
TTFWeight: 700
TTFWidth: 5
LineGap: 90
VLineGap: 0
Panose: 2 0 8 3 0 0 0 0 0 0
OS2TypoAscent: 1000
OS2TypoAOffset: 0
OS2TypoDescent: 0
OS2TypoDOffset: 0
OS2TypoLinegap: 90
OS2WinAscent: 1000
OS2WinAOffset: 0
OS2WinDescent: 0
OS2WinDOffset: 0
HheadAscent: 1000
HheadAOffset: 0
HheadDescent: 0
HheadDOffset: 0
OS2SubXSize: 650
OS2SubYSize: 700
OS2SubXOff: 12
OS2SubYOff: 140
OS2SupXSize: 650
OS2SupYSize: 700
OS2SupXOff: -41
OS2SupYOff: 480
OS2StrikeYSize: 49
OS2StrikeYPos: 258
OS2CapHeight: 1000
OS2XHeight: 1000
OS2Vendor: 'PfEd'
OS2CodePages: 00000001.00000000
OS2UnicodeRanges: 00000003.00000000.00000000.00000000
MarkAttachClasses: 1
DEI: 91125
ShortTable: cvt  2
  33
  633
EndShort
ShortTable: maxp 16
  1
  0
  72
  46
  7
  0
  0
  2
  0
  1
  1
  0
  64
  46
  0
  0
EndShort

StartChar: .notdef
Encoding: 65536 -1 0
Width: 364
GlyphClass: 1
Flags: W
LayerCount: 2
Fore
SplineSet
33 0 m 1,0,-1
 33 666 l 1,1,-1
 298 666 l 1,2,-1
 298 0 l 1,3,-1
 33 0 l 1,0,-1
66 33 m 1,4,-1
 265 33 l 1,5,-1
 265 633 l 1,6,-1
 66 633 l 1,7,-1
 66 33 l 1,4,-1
EndSplineSet
EndChar

StartChar: hyphen
Encoding: 45 45 5
Width: 816
GlyphClass: 1
Flags: W
LayerCount: 2
Fore
SplineSet
583 562 m 1,0,-1
 640 499 l 1,1,-1
 573 438 l 1,2,-1
 232 438 l 1,3,-1
 175 500 l 1,4,-1
 243 562 l 1,5,-1
 583 562 l 1,0,-1
EndSplineSet
EndChar

StartChar: period
Encoding: 46 46 6
Width: 184
GlyphClass: 1
Flags: W
LayerCount: 2
Fore
SplineSet
84 62 m 128,-1,1
 84 50 84 50 79 38 c 128,-1,2
 74 26 74 26 66 18 c 128,-1,3
 58 10 58 10 46 5 c 128,-1,4
 34 0 34 0 22 0 c 128,-1,5
 10 0 10 0 -2 5 c 128,-1,6
 -14 10 -14 10 -22 18 c 128,-1,7
 -30 26 -30 26 -35 38 c 128,-1,8
 -40 50 -40 50 -40 62 c 128,-1,9
 -40 74 -40 74 -35 86 c 128,-1,10
 -30 98 -30 98 -22 106 c 128,-1,11
 -14 114 -14 114 -2 119 c 128,-1,12
 10 124 10 124 22 124 c 128,-1,13
 34 124 34 124 46 119 c 128,-1,14
 58 114 58 114 66 106 c 128,-1,15
 74 98 74 98 79 86 c 128,-1,0
 84 74 84 74 84 62 c 128,-1,1
EndSplineSet
EndChar

StartChar: zero
Encoding: 48 48 7
Width: 660
GlyphClass: 1
Flags: W
LayerCount: 2
Fore
SplineSet
120.407226562 515 m 1,0,-1
 115.969726562 510 l 1,1,-1
 70.3681640625 510 l 1,2,-1
 135.388671875 924 l 1,3,-1
 165.30078125 955 l 1,4,-1
 224.365234375 862 l 1,5,-1
 179.34375 576 l 1,6,-1
 120.407226562 515 l 1,0,-1
21.685546875 45 m 1,7,-1
 2 76 l 1,8,-1
 67.0185546875 490 l 1,9,-1
 113.418945312 490 l 1,10,-1
 116.180664062 485 l 1,11,-1
 155.64453125 424 l 1,12,-1
 110.623046875 138 l 1,13,-1
 21.685546875 45 l 1,7,-1
178.525390625 969 m 1,14,-1
 208.438476562 1000 l 1,15,-1
 580.438476562 1000 l 1,16,-1
 600.92578125 969 l 1,17,-1
 511.990234375 876 l 1,18,-1
 238.388671875 876 l 1,19,-1
 178.525390625 969 l 1,14,-1
510.581054688 485 m 1,20,-1
 514.931640625 489 l 1,21,-1
 561.33203125 489 l 1,22,-1
 496.3984375 76 l 1,23,-1
 466.486328125 45 l 1,24,-1
 407.423828125 138 l 1,25,-1
 452.4453125 424 l 1,26,-1
 510.581054688 485 l 1,20,-1
610.1015625 955 m 1,27,-1
 629.7890625 924 l 1,28,-1
 564.768554688 510 l 1,29,-1
 518.368164062 510 l 1,30,-1
 515.518554688 514 l 1,31,-1
 476.0546875 575 l 1,32,-1
 521.1640625 862 l 1,33,-1
 610.1015625 955 l 1,27,-1
453.26171875 31 m 1,34,-1
 423.350585938 0 l 1,35,-1
 51.3505859375 0 l 1,36,-1
 30.861328125 31 l 1,37,-1
 119.798828125 124 l 1,38,-1
 393.3984375 124 l 1,39,-1
 453.26171875 31 l 1,34,-1
EndSplineSet
EndChar

StartChar: one
Encoding: 49 49 8
Width: 660
GlyphClass: 1
Flags: W
LayerCount: 2
Fore
SplineSet
368.431640625 485 m 1,0,-1
 372.783203125 489 l 1,1,-1
 419.18359375 489 l 1,2,-1
 354.25 76 l 1,3,-1
 324.337890625 45 l 1,4,-1
 265.2734375 138 l 1,5,-1
 310.294921875 424 l 1,6,-1
 368.431640625 485 l 1,0,-1
467.953125 955 m 1,7,-1
 487.638671875 924 l 1,8,-1
 422.619140625 510 l 1,9,-1
 376.21875 510 l 1,10,-1
 373.369140625 514 l 1,11,-1
 333.90625 575 l 1,12,-1
 379.015625 862 l 1,13,-1
 467.953125 955 l 1,7,-1
EndSplineSet
EndChar

StartChar: two
Encoding: 50 50 9
Width: 660
GlyphClass: 1
Flags: W
LayerCount: 2
Fore
SplineSet
461.318359375 562 m 1,0,-1
 501.40625 499 l 1,1,-1
 442.470703125 438 l 1,2,-1
 169.670898438 438 l 1,3,-1
 129.494140625 500 l 1,4,-1
 189.318359375 562 l 1,5,-1
 461.318359375 562 l 1,0,-1
21.6865234375 45 m 1,6,-1
 2 76 l 1,7,-1
 67.01953125 490 l 1,8,-1
 113.419921875 490 l 1,9,-1
 116.181640625 485 l 1,10,-1
 155.645507812 424 l 1,11,-1
 110.624023438 138 l 1,12,-1
 21.6865234375 45 l 1,6,-1
178.526367188 969 m 1,13,-1
 208.438476562 1000 l 1,14,-1
 580.438476562 1000 l 1,15,-1
 600.926757812 969 l 1,16,-1
 511.990234375 876 l 1,17,-1
 238.389648438 876 l 1,18,-1
 178.526367188 969 l 1,13,-1
610.102539062 955 m 1,19,-1
 629.7890625 924 l 1,20,-1
 564.76953125 510 l 1,21,-1
 518.369140625 510 l 1,22,-1
 515.51953125 514 l 1,23,-1
 476.055664062 575 l 1,24,-1
 521.165039062 862 l 1,25,-1
 610.102539062 955 l 1,19,-1
453.262695312 31 m 1,26,-1
 423.350585938 0 l 1,27,-1
 51.3505859375 0 l 1,28,-1
 30.8623046875 31 l 1,29,-1
 119.798828125 124 l 1,30,-1
 393.399414062 124 l 1,31,-1
 453.262695312 31 l 1,26,-1
EndSplineSet
EndChar

StartChar: three
Encoding: 51 51 10
Width: 660
GlyphClass: 1
Flags: W
LayerCount: 2
Fore
SplineSet
461.456054688 562 m 1,0,-1
 501.544921875 499 l 1,1,-1
 442.608398438 438 l 1,2,-1
 169.80859375 438 l 1,3,-1
 129.6328125 500 l 1,4,-1
 189.456054688 562 l 1,5,-1
 461.456054688 562 l 1,0,-1
178.665039062 969 m 1,6,-1
 208.577148438 1000 l 1,7,-1
 580.577148438 1000 l 1,8,-1
 601.064453125 969 l 1,9,-1
 512.127929688 876 l 1,10,-1
 238.528320312 876 l 1,11,-1
 178.665039062 969 l 1,6,-1
510.719726562 485 m 1,12,-1
 515.0703125 489 l 1,13,-1
 561.470703125 489 l 1,14,-1
 496.538085938 76 l 1,15,-1
 466.625 45 l 1,16,-1
 407.561523438 138 l 1,17,-1
 452.583007812 424 l 1,18,-1
 510.719726562 485 l 1,12,-1
610.240234375 955 m 1,19,-1
 629.927734375 924 l 1,20,-1
 564.907226562 510 l 1,21,-1
 518.5078125 510 l 1,22,-1
 515.657226562 514 l 1,23,-1
 476.194335938 575 l 1,24,-1
 521.303710938 862 l 1,25,-1
 610.240234375 955 l 1,19,-1
453.400390625 31 m 1,26,-1
 423.48828125 0 l 1,27,-1
 51.48828125 0 l 1,28,-1
 31 31 l 1,29,-1
 119.9375 124 l 1,30,-1
 393.537109375 124 l 1,31,-1
 453.400390625 31 l 1,26,-1
EndSplineSet
EndChar

StartChar: four
Encoding: 52 52 11
Width: 660
GlyphClass: 1
Flags: W
LayerCount: 2
Fore
SplineSet
461.948242188 562 m 1,0,-1
 502.037109375 499 l 1,1,-1
 443.100585938 438 l 1,2,-1
 170.30078125 438 l 1,3,-1
 130.125 500 l 1,4,-1
 189.948242188 562 l 1,5,-1
 461.948242188 562 l 1,0,-1
121.037109375 515 m 1,6,-1
 116.599609375 510 l 1,7,-1
 71 510 l 1,8,-1
 136.01953125 924 l 1,9,-1
 165.932617188 955 l 1,10,-1
 224.995117188 862 l 1,11,-1
 179.973632812 576 l 1,12,-1
 121.037109375 515 l 1,6,-1
511.211914062 485 m 1,13,-1
 515.5625 489 l 1,14,-1
 561.962890625 489 l 1,15,-1
 497.030273438 76 l 1,16,-1
 467.1171875 45 l 1,17,-1
 408.053710938 138 l 1,18,-1
 453.075195312 424 l 1,19,-1
 511.211914062 485 l 1,13,-1
610.732421875 955 m 1,20,-1
 630.418945312 924 l 1,21,-1
 565.399414062 510 l 1,22,-1
 519 510 l 1,23,-1
 516.149414062 514 l 1,24,-1
 476.686523438 575 l 1,25,-1
 521.795898438 862 l 1,26,-1
 610.732421875 955 l 1,20,-1
EndSplineSet
EndChar

StartChar: five
Encoding: 53 53 12
Width: 660
GlyphClass: 1
Flags: W
LayerCount: 2
Fore
SplineSet
490.456054688 562 m 1,0,-1
 530.543945312 499 l 1,1,-1
 471.608398438 438 l 1,2,-1
 198.809570312 438 l 1,3,-1
 158.631835938 500 l 1,4,-1
 218.456054688 562 l 1,5,-1
 490.456054688 562 l 1,0,-1
149.545898438 515 m 1,6,-1
 145.108398438 510 l 1,7,-1
 99.5068359375 510 l 1,8,-1
 164.52734375 924 l 1,9,-1
 194.439453125 955 l 1,10,-1
 253.50390625 862 l 1,11,-1
 208.482421875 576 l 1,12,-1
 149.545898438 515 l 1,6,-1
207.6640625 969 m 1,13,-1
 237.577148438 1000 l 1,14,-1
 609.577148438 1000 l 1,15,-1
 630.064453125 969 l 1,16,-1
 541.12890625 876 l 1,17,-1
 267.52734375 876 l 1,18,-1
 207.6640625 969 l 1,13,-1
539.719726562 485 m 1,19,-1
 544.0703125 489 l 1,20,-1
 590.470703125 489 l 1,21,-1
 525.537109375 76 l 1,22,-1
 495.625 45 l 1,23,-1
 436.5625 138 l 1,24,-1
 481.583984375 424 l 1,25,-1
 539.719726562 485 l 1,19,-1
482.400390625 31 m 1,26,-1
 452.489257812 0 l 1,27,-1
 80.4892578125 0 l 1,28,-1
 60 31 l 1,29,-1
 148.9375 124 l 1,30,-1
 422.537109375 124 l 1,31,-1
 482.400390625 31 l 1,26,-1
EndSplineSet
EndChar

StartChar: six
Encoding: 54 54 13
Width: 660
GlyphClass: 1
Flags: W
LayerCount: 2
Fore
SplineSet
490.318359375 562 m 1,0,-1
 530.40625 499 l 1,1,-1
 471.470703125 438 l 1,2,-1
 198.670898438 438 l 1,3,-1
 158.494140625 500 l 1,4,-1
 218.318359375 562 l 1,5,-1
 490.318359375 562 l 1,0,-1
149.407226562 515 m 1,6,-1
 144.969726562 510 l 1,7,-1
 99.369140625 510 l 1,8,-1
 164.388671875 924 l 1,9,-1
 194.301757812 955 l 1,10,-1
 253.365234375 862 l 1,11,-1
 208.34375 576 l 1,12,-1
 149.407226562 515 l 1,6,-1
50.6865234375 45 m 1,13,-1
 31 76 l 1,14,-1
 96.01953125 490 l 1,15,-1
 142.418945312 490 l 1,16,-1
 145.181640625 485 l 1,17,-1
 184.64453125 424 l 1,18,-1
 139.623046875 138 l 1,19,-1
 50.6865234375 45 l 1,13,-1
207.526367188 969 m 1,20,-1
 237.438476562 1000 l 1,21,-1
 609.438476562 1000 l 1,22,-1
 629.926757812 969 l 1,23,-1
 540.990234375 876 l 1,24,-1
 267.389648438 876 l 1,25,-1
 207.526367188 969 l 1,20,-1
539.58203125 485 m 1,26,-1
 543.932617188 489 l 1,27,-1
 590.33203125 489 l 1,28,-1
 525.399414062 76 l 1,29,-1
 495.486328125 45 l 1,30,-1
 436.423828125 138 l 1,31,-1
 481.4453125 424 l 1,32,-1
 539.58203125 485 l 1,26,-1
482.26171875 31 m 1,33,-1
 452.350585938 0 l 1,34,-1
 80.3505859375 0 l 1,35,-1
 59.8623046875 31 l 1,36,-1
 148.798828125 124 l 1,37,-1
 422.3984375 124 l 1,38,-1
 482.26171875 31 l 1,33,-1
EndSplineSet
EndChar

StartChar: seven
Encoding: 55 55 14
Width: 660
GlyphClass: 1
Flags: W
LayerCount: 2
Fore
SplineSet
179 969 m 1,0,-1
 208.911132812 1000 l 1,1,-1
 580.911132812 1000 l 1,2,-1
 601.399414062 969 l 1,3,-1
 512.462890625 876 l 1,4,-1
 238.86328125 876 l 1,5,-1
 179 969 l 1,0,-1
511.0546875 485 m 1,6,-1
 515.405273438 489 l 1,7,-1
 561.805664062 489 l 1,8,-1
 496.873046875 76 l 1,9,-1
 466.9609375 45 l 1,10,-1
 407.896484375 138 l 1,11,-1
 452.918945312 424 l 1,12,-1
 511.0546875 485 l 1,6,-1
610.575195312 955 m 1,13,-1
 630.262695312 924 l 1,14,-1
 565.2421875 510 l 1,15,-1
 518.842773438 510 l 1,16,-1
 515.9921875 514 l 1,17,-1
 476.529296875 575 l 1,18,-1
 521.638671875 862 l 1,19,-1
 610.575195312 955 l 1,13,-1
EndSplineSet
EndChar

StartChar: eight
Encoding: 56 56 15
Width: 660
GlyphClass: 1
Flags: W
LayerCount: 2
Fore
SplineSet
461.317382812 562 m 1,0,-1
 501.405273438 499 l 1,1,-1
 442.469726562 438 l 1,2,-1
 169.670898438 438 l 1,3,-1
 129.493164062 500 l 1,4,-1
 189.317382812 562 l 1,5,-1
 461.317382812 562 l 1,0,-1
120.407226562 515 m 1,6,-1
 115.969726562 510 l 1,7,-1
 70.3681640625 510 l 1,8,-1
 135.388671875 924 l 1,9,-1
 165.30078125 955 l 1,10,-1
 224.365234375 862 l 1,11,-1
 179.34375 576 l 1,12,-1
 120.407226562 515 l 1,6,-1
21.685546875 45 m 1,13,-1
 2 76 l 1,14,-1
 67.0185546875 490 l 1,15,-1
 113.418945312 490 l 1,16,-1
 116.180664062 485 l 1,17,-1
 155.64453125 424 l 1,18,-1
 110.623046875 138 l 1,19,-1
 21.685546875 45 l 1,13,-1
178.525390625 969 m 1,20,-1
 208.438476562 1000 l 1,21,-1
 580.438476562 1000 l 1,22,-1
 600.92578125 969 l 1,23,-1
 511.990234375 876 l 1,24,-1
 238.388671875 876 l 1,25,-1
 178.525390625 969 l 1,20,-1
510.581054688 485 m 1,26,-1
 514.931640625 489 l 1,27,-1
 561.33203125 489 l 1,28,-1
 496.3984375 76 l 1,29,-1
 466.486328125 45 l 1,30,-1
 407.423828125 138 l 1,31,-1
 452.4453125 424 l 1,32,-1
 510.581054688 485 l 1,26,-1
610.1015625 955 m 1,33,-1
 629.7890625 924 l 1,34,-1
 564.768554688 510 l 1,35,-1
 518.368164062 510 l 1,36,-1
 515.518554688 514 l 1,37,-1
 476.0546875 575 l 1,38,-1
 521.1640625 862 l 1,39,-1
 610.1015625 955 l 1,33,-1
453.26171875 31 m 1,40,-1
 423.350585938 0 l 1,41,-1
 51.3505859375 0 l 1,42,-1
 30.861328125 31 l 1,43,-1
 119.798828125 124 l 1,44,-1
 393.3984375 124 l 1,45,-1
 453.26171875 31 l 1,40,-1
EndSplineSet
EndChar

StartChar: nine
Encoding: 57 57 16
Width: 660
GlyphClass: 1
Flags: W
LayerCount: 2
Fore
SplineSet
461.456054688 562 m 1,0,-1
 501.544921875 499 l 1,1,-1
 442.608398438 438 l 1,2,-1
 169.80859375 438 l 1,3,-1
 129.6328125 500 l 1,4,-1
 189.456054688 562 l 1,5,-1
 461.456054688 562 l 1,0,-1
120.544921875 515 m 1,6,-1
 116.107421875 510 l 1,7,-1
 70.5078125 510 l 1,8,-1
 135.52734375 924 l 1,9,-1
 165.440429688 955 l 1,10,-1
 224.502929688 862 l 1,11,-1
 179.481445312 576 l 1,12,-1
 120.544921875 515 l 1,6,-1
178.665039062 969 m 1,13,-1
 208.576171875 1000 l 1,14,-1
 580.576171875 1000 l 1,15,-1
 601.064453125 969 l 1,16,-1
 512.127929688 876 l 1,17,-1
 238.528320312 876 l 1,18,-1
 178.665039062 969 l 1,13,-1
510.719726562 485 m 1,19,-1
 515.0703125 489 l 1,20,-1
 561.470703125 489 l 1,21,-1
 496.538085938 76 l 1,22,-1
 466.625 45 l 1,23,-1
 407.561523438 138 l 1,24,-1
 452.583007812 424 l 1,25,-1
 510.719726562 485 l 1,19,-1
610.240234375 955 m 1,26,-1
 629.926757812 924 l 1,27,-1
 564.907226562 510 l 1,28,-1
 518.5078125 510 l 1,29,-1
 515.657226562 514 l 1,30,-1
 476.194335938 575 l 1,31,-1
 521.303710938 862 l 1,32,-1
 610.240234375 955 l 1,26,-1
453.400390625 31 m 1,33,-1
 423.48828125 0 l 1,34,-1
 51.48828125 0 l 1,35,-1
 31 31 l 1,36,-1
 119.936523438 124 l 1,37,-1
 393.537109375 124 l 1,38,-1
 453.400390625 31 l 1,33,-1
EndSplineSet
EndChar

StartChar: colon
Encoding: 58 58 17
Width: 191
GlyphClass: 1
Flags: W
LayerCount: 2
Fore
SplineSet
98.6650390625 486 m 1024,0,-1
196.775390625 693 m 128,-1,2
 195.725585938 681 195.725585938 681 189.67578125 669 c 128,-1,3
 183.625976562 657 183.625976562 657 174.92578125 649 c 128,-1,4
 166.225585938 641 166.225585938 641 153.788085938 636 c 128,-1,5
 141.3515625 631 141.3515625 631 129.3515625 631 c 128,-1,6
 117.3515625 631 117.3515625 631 105.788085938 636 c 128,-1,7
 94.2255859375 641 94.2255859375 641 86.92578125 649 c 128,-1,8
 79.6259765625 657 79.6259765625 657 75.67578125 669 c 128,-1,9
 71.7255859375 681 71.7255859375 681 72.775390625 693 c 128,-1,10
 73.8251953125 705 73.8251953125 705 79.875 717 c 0,11,12
 85.837890625 728 85.837890625 728 94.537109375 736 c 0,13,14
 105.325195312 745 105.325195312 745 115.762695312 750 c 0,15,16
 125.112304688 754 125.112304688 754 140.112304688 754 c 128,-1,17
 155.112304688 754 155.112304688 754 163.762695312 750 c 0,18,19
 173.325195312 745 173.325195312 745 182.537109375 736 c 0,20,21
 189.837890625 728 189.837890625 728 193.875 717 c 0,22,1
 197.825195312 705 197.825195312 705 196.775390625 693 c 128,-1,2
124.73046875 281 m 128,-1,24
 123.680664062 269 123.680664062 269 117.629882812 257 c 128,-1,25
 111.580078125 245 111.580078125 245 102.880859375 237 c 128,-1,26
 94.1806640625 229 94.1806640625 229 81.7431640625 224 c 128,-1,27
 69.3056640625 219 69.3056640625 219 57.3056640625 219 c 128,-1,28
 45.3056640625 219 45.3056640625 219 33.7431640625 224 c 128,-1,29
 22.1806640625 229 22.1806640625 229 14.880859375 237 c 128,-1,30
 7.580078125 245 7.580078125 245 3.6298828125 257 c 128,-1,31
 -0.3193359375 269 -0.3193359375 269 0.73046875 281 c 128,-1,32
 1.7802734375 293 1.7802734375 293 7.830078125 305 c 0,33,34
 13.7919921875 316 13.7919921875 316 22.4921875 324 c 0,35,36
 33.3671875 334 33.3671875 334 43.716796875 338 c 0,37,38
 53.06640625 342 53.06640625 342 68.06640625 342 c 128,-1,39
 83.06640625 342 83.06640625 342 91.716796875 338 c 0,40,41
 101.3671875 334 101.3671875 334 110.4921875 324 c 0,42,43
 117.791992188 316 117.791992188 316 121.830078125 305 c 0,44,23
 125.780273438 293 125.780273438 293 124.73046875 281 c 128,-1,24
EndSplineSet
EndChar

StartChar: A
Encoding: 65 65 18
Width: 816
GlyphClass: 1
Flags: W
LayerCount: 2
Fore
SplineSet
583 562 m 1,0,-1
 640 499 l 1,1,-1
 573 438 l 1,2,-1
 232 438 l 1,3,-1
 175 500 l 1,4,-1
 243 562 l 1,5,-1
 583 562 l 1,0,-1
162 515 m 1,6,-1
 157 510 l 1,7,-1
 100 510 l 1,8,-1
 136 924 l 1,9,-1
 170 955 l 1,10,-1
 254 862 l 1,11,-1
 229 576 l 1,12,-1
 162 515 l 1,6,-1
90 45 m 1,13,-1
 62 76 l 1,14,-1
 98 490 l 1,15,-1
 156 490 l 1,16,-1
 160 485 l 1,17,-1
 216 424 l 1,18,-1
 191 138 l 1,19,-1
 90 45 l 1,13,-1
185 969 m 1,20,-1
 219 1000 l 1,21,-1
 684 1000 l 1,22,-1
 713 969 l 1,23,-1
 612 876 l 1,24,-1
 270 876 l 1,25,-1
 185 969 l 1,20,-1
653 485 m 1,26,-1
 658 489 l 1,27,-1
 716 489 l 1,28,-1
 680 76 l 1,29,-1
 646 45 l 1,30,-1
 562 138 l 1,31,-1
 587 424 l 1,32,-1
 653 485 l 1,26,-1
726 955 m 1,33,-1
 754 924 l 1,34,-1
 718 510 l 1,35,-1
 660 510 l 1,36,-1
 656 514 l 1,37,-1
 600 575 l 1,38,-1
 625 862 l 1,39,-1
 726 955 l 1,33,-1
EndSplineSet
EndChar

StartChar: B
Encoding: 66 66 19
Width: 816
GlyphClass: 1
Flags: W
LayerCount: 2
Fore
SplineSet
583 562 m 1,0,-1
 640 499 l 1,1,-1
 573 438 l 1,2,-1
 232 438 l 1,3,-1
 175 500 l 1,4,-1
 243 562 l 1,5,-1
 583 562 l 1,0,-1
162 515 m 1,6,-1
 157 510 l 1,7,-1
 100 510 l 1,8,-1
 136 924 l 1,9,-1
 170 955 l 1,10,-1
 254 862 l 1,11,-1
 229 576 l 1,12,-1
 162 515 l 1,6,-1
90 45 m 1,13,-1
 62 76 l 1,14,-1
 98 490 l 1,15,-1
 156 490 l 1,16,-1
 160 485 l 1,17,-1
 216 424 l 1,18,-1
 191 138 l 1,19,-1
 90 45 l 1,13,-1
653 485 m 1,20,-1
 658 489 l 1,21,-1
 716 489 l 1,22,-1
 680 76 l 1,23,-1
 646 45 l 1,24,-1
 562 138 l 1,25,-1
 587 424 l 1,26,-1
 653 485 l 1,20,-1
631 31 m 1,27,-1
 597 0 l 1,28,-1
 132 0 l 1,29,-1
 103 31 l 1,30,-1
 204 124 l 1,31,-1
 546 124 l 1,32,-1
 631 31 l 1,27,-1
EndSplineSet
EndChar

StartChar: C
Encoding: 67 67 20
Width: 816
GlyphClass: 1
Flags: W
LayerCount: 2
Fore
SplineSet
583 562 m 1,0,-1
 640 499 l 1,1,-1
 573 438 l 1,2,-1
 232 438 l 1,3,-1
 175 500 l 1,4,-1
 243 562 l 1,5,-1
 583 562 l 1,0,-1
90 45 m 1,6,-1
 62 76 l 1,7,-1
 98 490 l 1,8,-1
 156 490 l 1,9,-1
 160 485 l 1,10,-1
 216 424 l 1,11,-1
 191 138 l 1,12,-1
 90 45 l 1,6,-1
631 31 m 1,13,-1
 597 0 l 1,14,-1
 132 0 l 1,15,-1
 103 31 l 1,16,-1
 204 124 l 1,17,-1
 546 124 l 1,18,-1
 631 31 l 1,13,-1
EndSplineSet
EndChar

StartChar: D
Encoding: 68 68 21
Width: 816
GlyphClass: 1
Flags: W
LayerCount: 2
Fore
SplineSet
583 562 m 1,0,-1
 640 499 l 1,1,-1
 573 438 l 1,2,-1
 232 438 l 1,3,-1
 175 500 l 1,4,-1
 243 562 l 1,5,-1
 583 562 l 1,0,-1
90 45 m 1,6,-1
 62 76 l 1,7,-1
 98 490 l 1,8,-1
 156 490 l 1,9,-1
 160 485 l 1,10,-1
 216 424 l 1,11,-1
 191 138 l 1,12,-1
 90 45 l 1,6,-1
653 485 m 1,13,-1
 658 489 l 1,14,-1
 716 489 l 1,15,-1
 680 76 l 1,16,-1
 646 45 l 1,17,-1
 562 138 l 1,18,-1
 587 424 l 1,19,-1
 653 485 l 1,13,-1
726 955 m 1,20,-1
 754 924 l 1,21,-1
 718 510 l 1,22,-1
 660 510 l 1,23,-1
 656 514 l 1,24,-1
 600 575 l 1,25,-1
 625 862 l 1,26,-1
 726 955 l 1,20,-1
631 31 m 1,27,-1
 597 0 l 1,28,-1
 132 0 l 1,29,-1
 103 31 l 1,30,-1
 204 124 l 1,31,-1
 546 124 l 1,32,-1
 631 31 l 1,27,-1
EndSplineSet
EndChar

StartChar: E
Encoding: 69 69 22
Width: 816
GlyphClass: 1
Flags: W
LayerCount: 2
Fore
SplineSet
583 562 m 1,0,-1
 640 499 l 1,1,-1
 573 438 l 1,2,-1
 232 438 l 1,3,-1
 175 500 l 1,4,-1
 243 562 l 1,5,-1
 583 562 l 1,0,-1
162 515 m 1,6,-1
 157 510 l 1,7,-1
 100 510 l 1,8,-1
 136 924 l 1,9,-1
 170 955 l 1,10,-1
 254 862 l 1,11,-1
 229 576 l 1,12,-1
 162 515 l 1,6,-1
90 45 m 1,13,-1
 62 76 l 1,14,-1
 98 490 l 1,15,-1
 156 490 l 1,16,-1
 160 485 l 1,17,-1
 216 424 l 1,18,-1
 191 138 l 1,19,-1
 90 45 l 1,13,-1
185 969 m 1,20,-1
 219 1000 l 1,21,-1
 684 1000 l 1,22,-1
 713 969 l 1,23,-1
 612 876 l 1,24,-1
 270 876 l 1,25,-1
 185 969 l 1,20,-1
631 31 m 1,26,-1
 597 0 l 1,27,-1
 132 0 l 1,28,-1
 103 31 l 1,29,-1
 204 124 l 1,30,-1
 546 124 l 1,31,-1
 631 31 l 1,26,-1
EndSplineSet
EndChar

StartChar: F
Encoding: 70 70 23
Width: 816
GlyphClass: 1
Flags: W
LayerCount: 2
Fore
SplineSet
583 562 m 1,0,-1
 640 499 l 1,1,-1
 573 438 l 1,2,-1
 232 438 l 1,3,-1
 175 500 l 1,4,-1
 243 562 l 1,5,-1
 583 562 l 1,0,-1
162 515 m 1,6,-1
 157 510 l 1,7,-1
 100 510 l 1,8,-1
 136 924 l 1,9,-1
 170 955 l 1,10,-1
 254 862 l 1,11,-1
 229 576 l 1,12,-1
 162 515 l 1,6,-1
90 45 m 1,13,-1
 62 76 l 1,14,-1
 98 490 l 1,15,-1
 156 490 l 1,16,-1
 160 485 l 1,17,-1
 216 424 l 1,18,-1
 191 138 l 1,19,-1
 90 45 l 1,13,-1
185 969 m 1,20,-1
 219 1000 l 1,21,-1
 684 1000 l 1,22,-1
 713 969 l 1,23,-1
 612 876 l 1,24,-1
 270 876 l 1,25,-1
 185 969 l 1,20,-1
EndSplineSet
EndChar

StartChar: G
Encoding: 71 71 24
Width: 816
GlyphClass: 1
Flags: W
LayerCount: 2
Fore
SplineSet
162 515 m 1,0,-1
 157 510 l 1,1,-1
 100 510 l 1,2,-1
 136 924 l 1,3,-1
 170 955 l 1,4,-1
 254 862 l 1,5,-1
 229 576 l 1,6,-1
 162 515 l 1,0,-1
90 45 m 1,7,-1
 62 76 l 1,8,-1
 98 490 l 1,9,-1
 156 490 l 1,10,-1
 160 485 l 1,11,-1
 216 424 l 1,12,-1
 191 138 l 1,13,-1
 90 45 l 1,7,-1
185 969 m 1,14,-1
 219 1000 l 1,15,-1
 684 1000 l 1,16,-1
 713 969 l 1,17,-1
 612 876 l 1,18,-1
 270 876 l 1,19,-1
 185 969 l 1,14,-1
653 485 m 1,20,-1
 658 489 l 1,21,-1
 716 489 l 1,22,-1
 680 76 l 1,23,-1
 646 45 l 1,24,-1
 562 138 l 1,25,-1
 587 424 l 1,26,-1
 653 485 l 1,20,-1
631 31 m 1,27,-1
 597 0 l 1,28,-1
 132 0 l 1,29,-1
 103 31 l 1,30,-1
 204 124 l 1,31,-1
 546 124 l 1,32,-1
 631 31 l 1,27,-1
EndSplineSet
EndChar

StartChar: H
Encoding: 72 72 25
Width: 816
GlyphClass: 1
Flags: W
LayerCount: 2
Fore
SplineSet
583 562 m 1,0,-1
 640 499 l 1,1,-1
 573 438 l 1,2,-1
 232 438 l 1,3,-1
 175 500 l 1,4,-1
 243 562 l 1,5,-1
 583 562 l 1,0,-1
162 515 m 1,6,-1
 157 510 l 1,7,-1
 100 510 l 1,8,-1
 136 924 l 1,9,-1
 170 955 l 1,10,-1
 254 862 l 1,11,-1
 229 576 l 1,12,-1
 162 515 l 1,6,-1
90 45 m 1,13,-1
 62 76 l 1,14,-1
 98 490 l 1,15,-1
 156 490 l 1,16,-1
 160 485 l 1,17,-1
 216 424 l 1,18,-1
 191 138 l 1,19,-1
 90 45 l 1,13,-1
653 485 m 1,20,-1
 658 489 l 1,21,-1
 716 489 l 1,22,-1
 680 76 l 1,23,-1
 646 45 l 1,24,-1
 562 138 l 1,25,-1
 587 424 l 1,26,-1
 653 485 l 1,20,-1
EndSplineSet
EndChar

StartChar: I
Encoding: 73 73 26
Width: 816
GlyphClass: 1
Flags: W
LayerCount: 2
Fore
SplineSet
653 485 m 1,0,-1
 658 489 l 1,1,-1
 716 489 l 1,2,-1
 680 76 l 1,3,-1
 646 45 l 1,4,-1
 562 138 l 1,5,-1
 587 424 l 1,6,-1
 653 485 l 1,0,-1
EndSplineSet
EndChar

StartChar: J
Encoding: 74 74 27
Width: 816
GlyphClass: 1
Flags: W
LayerCount: 2
Fore
SplineSet
90 45 m 1,0,-1
 62 76 l 1,1,-1
 98 490 l 1,2,-1
 156 490 l 1,3,-1
 160 485 l 1,4,-1
 216 424 l 1,5,-1
 191 138 l 1,6,-1
 90 45 l 1,0,-1
653 485 m 1,7,-1
 658 489 l 1,8,-1
 716 489 l 1,9,-1
 680 76 l 1,10,-1
 646 45 l 1,11,-1
 562 138 l 1,12,-1
 587 424 l 1,13,-1
 653 485 l 1,7,-1
726 955 m 1,14,-1
 754 924 l 1,15,-1
 718 510 l 1,16,-1
 660 510 l 1,17,-1
 656 514 l 1,18,-1
 600 575 l 1,19,-1
 625 862 l 1,20,-1
 726 955 l 1,14,-1
631 31 m 1,21,-1
 597 0 l 1,22,-1
 132 0 l 1,23,-1
 103 31 l 1,24,-1
 204 124 l 1,25,-1
 546 124 l 1,26,-1
 631 31 l 1,21,-1
EndSplineSet
EndChar

StartChar: K
Encoding: 75 75 28
Width: 816
GlyphClass: 1
Flags: W
LayerCount: 2
Fore
SplineSet
583 562 m 1,0,-1
 640 499 l 1,1,-1
 573 438 l 1,2,-1
 232 438 l 1,3,-1
 175 500 l 1,4,-1
 243 562 l 1,5,-1
 583 562 l 1,0,-1
162 515 m 1,6,-1
 157 510 l 1,7,-1
 100 510 l 1,8,-1
 136 924 l 1,9,-1
 170 955 l 1,10,-1
 254 862 l 1,11,-1
 229 576 l 1,12,-1
 162 515 l 1,6,-1
90 45 m 1,13,-1
 62 76 l 1,14,-1
 98 490 l 1,15,-1
 156 490 l 1,16,-1
 160 485 l 1,17,-1
 216 424 l 1,18,-1
 191 138 l 1,19,-1
 90 45 l 1,13,-1
185 969 m 1,20,-1
 219 1000 l 1,21,-1
 684 1000 l 1,22,-1
 713 969 l 1,23,-1
 612 876 l 1,24,-1
 270 876 l 1,25,-1
 185 969 l 1,20,-1
653 485 m 1,26,-1
 658 489 l 1,27,-1
 716 489 l 1,28,-1
 680 76 l 1,29,-1
 646 45 l 1,30,-1
 562 138 l 1,31,-1
 587 424 l 1,32,-1
 653 485 l 1,26,-1
EndSplineSet
EndChar

StartChar: L
Encoding: 76 76 29
Width: 816
GlyphClass: 1
Flags: W
LayerCount: 2
Fore
SplineSet
162 515 m 1,0,-1
 157 510 l 1,1,-1
 100 510 l 1,2,-1
 136 924 l 1,3,-1
 170 955 l 1,4,-1
 254 862 l 1,5,-1
 229 576 l 1,6,-1
 162 515 l 1,0,-1
90 45 m 1,7,-1
 62 76 l 1,8,-1
 98 490 l 1,9,-1
 156 490 l 1,10,-1
 160 485 l 1,11,-1
 216 424 l 1,12,-1
 191 138 l 1,13,-1
 90 45 l 1,7,-1
631 31 m 1,14,-1
 597 0 l 1,15,-1
 132 0 l 1,16,-1
 103 31 l 1,17,-1
 204 124 l 1,18,-1
 546 124 l 1,19,-1
 631 31 l 1,14,-1
EndSplineSet
EndChar

StartChar: M
Encoding: 77 77 30
Width: 816
GlyphClass: 1
Flags: W
LayerCount: 2
Fore
SplineSet
162 515 m 1,0,-1
 157 510 l 1,1,-1
 100 510 l 1,2,-1
 136 924 l 1,3,-1
 170 955 l 1,4,-1
 254 862 l 1,5,-1
 229 576 l 1,6,-1
 162 515 l 1,0,-1
90 45 m 1,7,-1
 62 76 l 1,8,-1
 98 490 l 1,9,-1
 156 490 l 1,10,-1
 160 485 l 1,11,-1
 216 424 l 1,12,-1
 191 138 l 1,13,-1
 90 45 l 1,7,-1
185 969 m 1,14,-1
 219 1000 l 1,15,-1
 684 1000 l 1,16,-1
 713 969 l 1,17,-1
 612 876 l 1,18,-1
 270 876 l 1,19,-1
 185 969 l 1,14,-1
653 485 m 1,20,-1
 658 489 l 1,21,-1
 716 489 l 1,22,-1
 680 76 l 1,23,-1
 646 45 l 1,24,-1
 562 138 l 1,25,-1
 587 424 l 1,26,-1
 653 485 l 1,20,-1
726 955 m 1,27,-1
 754 924 l 1,28,-1
 718 510 l 1,29,-1
 660 510 l 1,30,-1
 656 514 l 1,31,-1
 600 575 l 1,32,-1
 625 862 l 1,33,-1
 726 955 l 1,27,-1
EndSplineSet
EndChar

StartChar: N
Encoding: 78 78 31
Width: 816
GlyphClass: 1
Flags: W
LayerCount: 2
Fore
SplineSet
583 562 m 1,0,-1
 640 499 l 1,1,-1
 573 438 l 1,2,-1
 232 438 l 1,3,-1
 175 500 l 1,4,-1
 243 562 l 1,5,-1
 583 562 l 1,0,-1
90 45 m 1,6,-1
 62 76 l 1,7,-1
 98 490 l 1,8,-1
 156 490 l 1,9,-1
 160 485 l 1,10,-1
 216 424 l 1,11,-1
 191 138 l 1,12,-1
 90 45 l 1,6,-1
653 485 m 1,13,-1
 658 489 l 1,14,-1
 716 489 l 1,15,-1
 680 76 l 1,16,-1
 646 45 l 1,17,-1
 562 138 l 1,18,-1
 587 424 l 1,19,-1
 653 485 l 1,13,-1
EndSplineSet
EndChar

StartChar: O
Encoding: 79 79 32
Width: 816
GlyphClass: 1
Flags: W
LayerCount: 2
Fore
SplineSet
583 562 m 1,0,-1
 640 499 l 1,1,-1
 573 438 l 1,2,-1
 232 438 l 1,3,-1
 175 500 l 1,4,-1
 243 562 l 1,5,-1
 583 562 l 1,0,-1
90 45 m 1,6,-1
 62 76 l 1,7,-1
 98 490 l 1,8,-1
 156 490 l 1,9,-1
 160 485 l 1,10,-1
 216 424 l 1,11,-1
 191 138 l 1,12,-1
 90 45 l 1,6,-1
653 485 m 1,13,-1
 658 489 l 1,14,-1
 716 489 l 1,15,-1
 680 76 l 1,16,-1
 646 45 l 1,17,-1
 562 138 l 1,18,-1
 587 424 l 1,19,-1
 653 485 l 1,13,-1
631 31 m 1,20,-1
 597 0 l 1,21,-1
 132 0 l 1,22,-1
 103 31 l 1,23,-1
 204 124 l 1,24,-1
 546 124 l 1,25,-1
 631 31 l 1,20,-1
EndSplineSet
EndChar

StartChar: P
Encoding: 80 80 33
Width: 816
GlyphClass: 1
Flags: W
LayerCount: 2
Fore
SplineSet
583 562 m 1,0,-1
 640 499 l 1,1,-1
 573 438 l 1,2,-1
 232 438 l 1,3,-1
 175 500 l 1,4,-1
 243 562 l 1,5,-1
 583 562 l 1,0,-1
162 515 m 1,6,-1
 157 510 l 1,7,-1
 100 510 l 1,8,-1
 136 924 l 1,9,-1
 170 955 l 1,10,-1
 254 862 l 1,11,-1
 229 576 l 1,12,-1
 162 515 l 1,6,-1
90 45 m 1,13,-1
 62 76 l 1,14,-1
 98 490 l 1,15,-1
 156 490 l 1,16,-1
 160 485 l 1,17,-1
 216 424 l 1,18,-1
 191 138 l 1,19,-1
 90 45 l 1,13,-1
185 969 m 1,20,-1
 219 1000 l 1,21,-1
 684 1000 l 1,22,-1
 713 969 l 1,23,-1
 612 876 l 1,24,-1
 270 876 l 1,25,-1
 185 969 l 1,20,-1
726 955 m 1,26,-1
 754 924 l 1,27,-1
 718 510 l 1,28,-1
 660 510 l 1,29,-1
 656 514 l 1,30,-1
 600 575 l 1,31,-1
 625 862 l 1,32,-1
 726 955 l 1,26,-1
EndSplineSet
EndChar

StartChar: Q
Encoding: 81 81 34
Width: 816
GlyphClass: 1
Flags: W
LayerCount: 2
Fore
SplineSet
583 562 m 1,0,-1
 640 499 l 1,1,-1
 573 438 l 1,2,-1
 232 438 l 1,3,-1
 175 500 l 1,4,-1
 243 562 l 1,5,-1
 583 562 l 1,0,-1
162 515 m 1,6,-1
 157 510 l 1,7,-1
 100 510 l 1,8,-1
 136 924 l 1,9,-1
 170 955 l 1,10,-1
 254 862 l 1,11,-1
 229 576 l 1,12,-1
 162 515 l 1,6,-1
185 969 m 1,13,-1
 219 1000 l 1,14,-1
 684 1000 l 1,15,-1
 713 969 l 1,16,-1
 612 876 l 1,17,-1
 270 876 l 1,18,-1
 185 969 l 1,13,-1
653 485 m 1,19,-1
 658 489 l 1,20,-1
 716 489 l 1,21,-1
 680 76 l 1,22,-1
 646 45 l 1,23,-1
 562 138 l 1,24,-1
 587 424 l 1,25,-1
 653 485 l 1,19,-1
726 955 m 1,26,-1
 754 924 l 1,27,-1
 718 510 l 1,28,-1
 660 510 l 1,29,-1
 656 514 l 1,30,-1
 600 575 l 1,31,-1
 625 862 l 1,32,-1
 726 955 l 1,26,-1
EndSplineSet
EndChar

StartChar: R
Encoding: 82 82 35
Width: 816
GlyphClass: 1
Flags: W
LayerCount: 2
Fore
SplineSet
583 562 m 1,0,-1
 640 499 l 1,1,-1
 573 438 l 1,2,-1
 232 438 l 1,3,-1
 175 500 l 1,4,-1
 243 562 l 1,5,-1
 583 562 l 1,0,-1
90 45 m 1,6,-1
 62 76 l 1,7,-1
 98 490 l 1,8,-1
 156 490 l 1,9,-1
 160 485 l 1,10,-1
 216 424 l 1,11,-1
 191 138 l 1,12,-1
 90 45 l 1,6,-1
EndSplineSet
EndChar

StartChar: S
Encoding: 83 83 36
Width: 816
GlyphClass: 1
Flags: W
LayerCount: 2
Fore
SplineSet
583 562 m 1,0,-1
 640 499 l 1,1,-1
 573 438 l 1,2,-1
 232 438 l 1,3,-1
 175 500 l 1,4,-1
 243 562 l 1,5,-1
 583 562 l 1,0,-1
162 515 m 1,6,-1
 157 510 l 1,7,-1
 100 510 l 1,8,-1
 136 924 l 1,9,-1
 170 955 l 1,10,-1
 254 862 l 1,11,-1
 229 576 l 1,12,-1
 162 515 l 1,6,-1
653 485 m 1,13,-1
 658 489 l 1,14,-1
 716 489 l 1,15,-1
 680 76 l 1,16,-1
 646 45 l 1,17,-1
 562 138 l 1,18,-1
 587 424 l 1,19,-1
 653 485 l 1,13,-1
631 31 m 1,20,-1
 597 0 l 1,21,-1
 132 0 l 1,22,-1
 103 31 l 1,23,-1
 204 124 l 1,24,-1
 546 124 l 1,25,-1
 631 31 l 1,20,-1
EndSplineSet
EndChar

StartChar: T
Encoding: 84 84 37
Width: 816
GlyphClass: 1
Flags: W
LayerCount: 2
Fore
SplineSet
583 562 m 1,0,-1
 640 499 l 1,1,-1
 573 438 l 1,2,-1
 232 438 l 1,3,-1
 175 500 l 1,4,-1
 243 562 l 1,5,-1
 583 562 l 1,0,-1
162 515 m 1,6,-1
 157 510 l 1,7,-1
 100 510 l 1,8,-1
 136 924 l 1,9,-1
 170 955 l 1,10,-1
 254 862 l 1,11,-1
 229 576 l 1,12,-1
 162 515 l 1,6,-1
90 45 m 1,13,-1
 62 76 l 1,14,-1
 98 490 l 1,15,-1
 156 490 l 1,16,-1
 160 485 l 1,17,-1
 216 424 l 1,18,-1
 191 138 l 1,19,-1
 90 45 l 1,13,-1
631 31 m 1,20,-1
 597 0 l 1,21,-1
 132 0 l 1,22,-1
 103 31 l 1,23,-1
 204 124 l 1,24,-1
 546 124 l 1,25,-1
 631 31 l 1,20,-1
EndSplineSet
EndChar

StartChar: U
Encoding: 85 85 38
Width: 816
GlyphClass: 1
Flags: W
LayerCount: 2
Fore
SplineSet
90 45 m 1,0,-1
 62 76 l 1,1,-1
 98 490 l 1,2,-1
 156 490 l 1,3,-1
 160 485 l 1,4,-1
 216 424 l 1,5,-1
 191 138 l 1,6,-1
 90 45 l 1,0,-1
653 485 m 1,7,-1
 658 489 l 1,8,-1
 716 489 l 1,9,-1
 680 76 l 1,10,-1
 646 45 l 1,11,-1
 562 138 l 1,12,-1
 587 424 l 1,13,-1
 653 485 l 1,7,-1
631 31 m 1,14,-1
 597 0 l 1,15,-1
 132 0 l 1,16,-1
 103 31 l 1,17,-1
 204 124 l 1,18,-1
 546 124 l 1,19,-1
 631 31 l 1,14,-1
EndSplineSet
EndChar

StartChar: V
Encoding: 86 86 39
Width: 816
GlyphClass: 1
Flags: W
LayerCount: 2
Fore
SplineSet
162 515 m 1,0,-1
 157 510 l 1,1,-1
 100 510 l 1,2,-1
 136 924 l 1,3,-1
 170 955 l 1,4,-1
 254 862 l 1,5,-1
 229 576 l 1,6,-1
 162 515 l 1,0,-1
90 45 m 1,7,-1
 62 76 l 1,8,-1
 98 490 l 1,9,-1
 156 490 l 1,10,-1
 160 485 l 1,11,-1
 216 424 l 1,12,-1
 191 138 l 1,13,-1
 90 45 l 1,7,-1
653 485 m 1,14,-1
 658 489 l 1,15,-1
 716 489 l 1,16,-1
 680 76 l 1,17,-1
 646 45 l 1,18,-1
 562 138 l 1,19,-1
 587 424 l 1,20,-1
 653 485 l 1,14,-1
726 955 m 1,21,-1
 754 924 l 1,22,-1
 718 510 l 1,23,-1
 660 510 l 1,24,-1
 656 514 l 1,25,-1
 600 575 l 1,26,-1
 625 862 l 1,27,-1
 726 955 l 1,21,-1
631 31 m 1,28,-1
 597 0 l 1,29,-1
 132 0 l 1,30,-1
 103 31 l 1,31,-1
 204 124 l 1,32,-1
 546 124 l 1,33,-1
 631 31 l 1,28,-1
EndSplineSet
EndChar

StartChar: W
Encoding: 87 87 40
Width: 816
GlyphClass: 1
Flags: W
LayerCount: 2
Fore
SplineSet
583 562 m 1,0,-1
 640 499 l 1,1,-1
 573 438 l 1,2,-1
 232 438 l 1,3,-1
 175 500 l 1,4,-1
 243 562 l 1,5,-1
 583 562 l 1,0,-1
162 515 m 1,6,-1
 157 510 l 1,7,-1
 100 510 l 1,8,-1
 136 924 l 1,9,-1
 170 955 l 1,10,-1
 254 862 l 1,11,-1
 229 576 l 1,12,-1
 162 515 l 1,6,-1
90 45 m 1,13,-1
 62 76 l 1,14,-1
 98 490 l 1,15,-1
 156 490 l 1,16,-1
 160 485 l 1,17,-1
 216 424 l 1,18,-1
 191 138 l 1,19,-1
 90 45 l 1,13,-1
653 485 m 1,20,-1
 658 489 l 1,21,-1
 716 489 l 1,22,-1
 680 76 l 1,23,-1
 646 45 l 1,24,-1
 562 138 l 1,25,-1
 587 424 l 1,26,-1
 653 485 l 1,20,-1
726 955 m 1,27,-1
 754 924 l 1,28,-1
 718 510 l 1,29,-1
 660 510 l 1,30,-1
 656 514 l 1,31,-1
 600 575 l 1,32,-1
 625 862 l 1,33,-1
 726 955 l 1,27,-1
631 31 m 1,34,-1
 597 0 l 1,35,-1
 132 0 l 1,36,-1
 103 31 l 1,37,-1
 204 124 l 1,38,-1
 546 124 l 1,39,-1
 631 31 l 1,34,-1
EndSplineSet
EndChar

StartChar: X
Encoding: 88 88 41
Width: 816
GlyphClass: 1
Flags: W
LayerCount: 2
Fore
SplineSet
583 562 m 1,0,-1
 640 499 l 1,1,-1
 573 438 l 1,2,-1
 232 438 l 1,3,-1
 175 500 l 1,4,-1
 243 562 l 1,5,-1
 583 562 l 1,0,-1
162 515 m 1,6,-1
 157 510 l 1,7,-1
 100 510 l 1,8,-1
 136 924 l 1,9,-1
 170 955 l 1,10,-1
 254 862 l 1,11,-1
 229 576 l 1,12,-1
 162 515 l 1,6,-1
90 45 m 1,13,-1
 62 76 l 1,14,-1
 98 490 l 1,15,-1
 156 490 l 1,16,-1
 160 485 l 1,17,-1
 216 424 l 1,18,-1
 191 138 l 1,19,-1
 90 45 l 1,13,-1
653 485 m 1,20,-1
 658 489 l 1,21,-1
 716 489 l 1,22,-1
 680 76 l 1,23,-1
 646 45 l 1,24,-1
 562 138 l 1,25,-1
 587 424 l 1,26,-1
 653 485 l 1,20,-1
726 955 m 1,27,-1
 754 924 l 1,28,-1
 718 510 l 1,29,-1
 660 510 l 1,30,-1
 656 514 l 1,31,-1
 600 575 l 1,32,-1
 625 862 l 1,33,-1
 726 955 l 1,27,-1
EndSplineSet
EndChar

StartChar: Y
Encoding: 89 89 42
Width: 816
GlyphClass: 1
Flags: W
LayerCount: 2
Fore
SplineSet
583 562 m 1,0,-1
 640 499 l 1,1,-1
 573 438 l 1,2,-1
 232 438 l 1,3,-1
 175 500 l 1,4,-1
 243 562 l 1,5,-1
 583 562 l 1,0,-1
162 515 m 1,6,-1
 157 510 l 1,7,-1
 100 510 l 1,8,-1
 136 924 l 1,9,-1
 170 955 l 1,10,-1
 254 862 l 1,11,-1
 229 576 l 1,12,-1
 162 515 l 1,6,-1
653 485 m 1,13,-1
 658 489 l 1,14,-1
 716 489 l 1,15,-1
 680 76 l 1,16,-1
 646 45 l 1,17,-1
 562 138 l 1,18,-1
 587 424 l 1,19,-1
 653 485 l 1,13,-1
726 955 m 1,20,-1
 754 924 l 1,21,-1
 718 510 l 1,22,-1
 660 510 l 1,23,-1
 656 514 l 1,24,-1
 600 575 l 1,25,-1
 625 862 l 1,26,-1
 726 955 l 1,20,-1
631 31 m 1,27,-1
 597 0 l 1,28,-1
 132 0 l 1,29,-1
 103 31 l 1,30,-1
 204 124 l 1,31,-1
 546 124 l 1,32,-1
 631 31 l 1,27,-1
EndSplineSet
EndChar

StartChar: Z
Encoding: 90 90 43
Width: 816
GlyphClass: 1
Flags: W
LayerCount: 2
Fore
SplineSet
90 45 m 1,0,-1
 62 76 l 1,1,-1
 98 490 l 1,2,-1
 156 490 l 1,3,-1
 160 485 l 1,4,-1
 216 424 l 1,5,-1
 191 138 l 1,6,-1
 90 45 l 1,0,-1
185 969 m 1,7,-1
 219 1000 l 1,8,-1
 684 1000 l 1,9,-1
 713 969 l 1,10,-1
 612 876 l 1,11,-1
 270 876 l 1,12,-1
 185 969 l 1,7,-1
726 955 m 1,13,-1
 754 924 l 1,14,-1
 718 510 l 1,15,-1
 660 510 l 1,16,-1
 656 514 l 1,17,-1
 600 575 l 1,18,-1
 625 862 l 1,19,-1
 726 955 l 1,13,-1
631 31 m 1,20,-1
 597 0 l 1,21,-1
 132 0 l 1,22,-1
 103 31 l 1,23,-1
 204 124 l 1,24,-1
 546 124 l 1,25,-1
 631 31 l 1,20,-1
EndSplineSet
EndChar

StartChar: underscore
Encoding: 95 95 44
Width: 816
GlyphClass: 1
Flags: W
LayerCount: 2
Fore
SplineSet
631 31 m 1,0,-1
 597 0 l 1,1,-1
 132 0 l 1,2,-1
 103 31 l 1,3,-1
 204 124 l 1,4,-1
 546 124 l 1,5,-1
 631 31 l 1,0,-1
EndSplineSet
EndChar

StartChar: a
Encoding: 97 97 45
Width: 816
GlyphClass: 1
Flags: W
LayerCount: 2
Fore
SplineSet
583 562 m 1,0,-1
 640 499 l 1,1,-1
 573 438 l 1,2,-1
 232 438 l 1,3,-1
 175 500 l 1,4,-1
 243 562 l 1,5,-1
 583 562 l 1,0,-1
162 515 m 1,6,-1
 157 510 l 1,7,-1
 100 510 l 1,8,-1
 136 924 l 1,9,-1
 170 955 l 1,10,-1
 254 862 l 1,11,-1
 229 576 l 1,12,-1
 162 515 l 1,6,-1
90 45 m 1,13,-1
 62 76 l 1,14,-1
 98 490 l 1,15,-1
 156 490 l 1,16,-1
 160 485 l 1,17,-1
 216 424 l 1,18,-1
 191 138 l 1,19,-1
 90 45 l 1,13,-1
185 969 m 1,20,-1
 219 1000 l 1,21,-1
 684 1000 l 1,22,-1
 713 969 l 1,23,-1
 612 876 l 1,24,-1
 270 876 l 1,25,-1
 185 969 l 1,20,-1
653 485 m 1,26,-1
 658 489 l 1,27,-1
 716 489 l 1,28,-1
 680 76 l 1,29,-1
 646 45 l 1,30,-1
 562 138 l 1,31,-1
 587 424 l 1,32,-1
 653 485 l 1,26,-1
726 955 m 1,33,-1
 754 924 l 1,34,-1
 718 510 l 1,35,-1
 660 510 l 1,36,-1
 656 514 l 1,37,-1
 600 575 l 1,38,-1
 625 862 l 1,39,-1
 726 955 l 1,33,-1
EndSplineSet
EndChar

StartChar: b
Encoding: 98 98 46
Width: 816
GlyphClass: 1
Flags: W
LayerCount: 2
Fore
SplineSet
583 562 m 1,0,-1
 640 499 l 1,1,-1
 573 438 l 1,2,-1
 232 438 l 1,3,-1
 175 500 l 1,4,-1
 243 562 l 1,5,-1
 583 562 l 1,0,-1
162 515 m 1,6,-1
 157 510 l 1,7,-1
 100 510 l 1,8,-1
 136 924 l 1,9,-1
 170 955 l 1,10,-1
 254 862 l 1,11,-1
 229 576 l 1,12,-1
 162 515 l 1,6,-1
90 45 m 1,13,-1
 62 76 l 1,14,-1
 98 490 l 1,15,-1
 156 490 l 1,16,-1
 160 485 l 1,17,-1
 216 424 l 1,18,-1
 191 138 l 1,19,-1
 90 45 l 1,13,-1
653 485 m 1,20,-1
 658 489 l 1,21,-1
 716 489 l 1,22,-1
 680 76 l 1,23,-1
 646 45 l 1,24,-1
 562 138 l 1,25,-1
 587 424 l 1,26,-1
 653 485 l 1,20,-1
631 31 m 1,27,-1
 597 0 l 1,28,-1
 132 0 l 1,29,-1
 103 31 l 1,30,-1
 204 124 l 1,31,-1
 546 124 l 1,32,-1
 631 31 l 1,27,-1
EndSplineSet
EndChar

StartChar: c
Encoding: 99 99 47
Width: 816
GlyphClass: 1
Flags: W
LayerCount: 2
Fore
SplineSet
583 562 m 1,0,-1
 640 499 l 1,1,-1
 573 438 l 1,2,-1
 232 438 l 1,3,-1
 175 500 l 1,4,-1
 243 562 l 1,5,-1
 583 562 l 1,0,-1
90 45 m 1,6,-1
 62 76 l 1,7,-1
 98 490 l 1,8,-1
 156 490 l 1,9,-1
 160 485 l 1,10,-1
 216 424 l 1,11,-1
 191 138 l 1,12,-1
 90 45 l 1,6,-1
631 31 m 1,13,-1
 597 0 l 1,14,-1
 132 0 l 1,15,-1
 103 31 l 1,16,-1
 204 124 l 1,17,-1
 546 124 l 1,18,-1
 631 31 l 1,13,-1
EndSplineSet
EndChar

StartChar: d
Encoding: 100 100 48
Width: 816
GlyphClass: 1
Flags: W
LayerCount: 2
Fore
SplineSet
583 562 m 1,0,-1
 640 499 l 1,1,-1
 573 438 l 1,2,-1
 232 438 l 1,3,-1
 175 500 l 1,4,-1
 243 562 l 1,5,-1
 583 562 l 1,0,-1
90 45 m 1,6,-1
 62 76 l 1,7,-1
 98 490 l 1,8,-1
 156 490 l 1,9,-1
 160 485 l 1,10,-1
 216 424 l 1,11,-1
 191 138 l 1,12,-1
 90 45 l 1,6,-1
653 485 m 1,13,-1
 658 489 l 1,14,-1
 716 489 l 1,15,-1
 680 76 l 1,16,-1
 646 45 l 1,17,-1
 562 138 l 1,18,-1
 587 424 l 1,19,-1
 653 485 l 1,13,-1
726 955 m 1,20,-1
 754 924 l 1,21,-1
 718 510 l 1,22,-1
 660 510 l 1,23,-1
 656 514 l 1,24,-1
 600 575 l 1,25,-1
 625 862 l 1,26,-1
 726 955 l 1,20,-1
631 31 m 1,27,-1
 597 0 l 1,28,-1
 132 0 l 1,29,-1
 103 31 l 1,30,-1
 204 124 l 1,31,-1
 546 124 l 1,32,-1
 631 31 l 1,27,-1
EndSplineSet
EndChar

StartChar: e
Encoding: 101 101 49
Width: 816
GlyphClass: 1
Flags: W
LayerCount: 2
Fore
SplineSet
583 562 m 1,0,-1
 640 499 l 1,1,-1
 573 438 l 1,2,-1
 232 438 l 1,3,-1
 175 500 l 1,4,-1
 243 562 l 1,5,-1
 583 562 l 1,0,-1
162 515 m 1,6,-1
 157 510 l 1,7,-1
 100 510 l 1,8,-1
 136 924 l 1,9,-1
 170 955 l 1,10,-1
 254 862 l 1,11,-1
 229 576 l 1,12,-1
 162 515 l 1,6,-1
90 45 m 1,13,-1
 62 76 l 1,14,-1
 98 490 l 1,15,-1
 156 490 l 1,16,-1
 160 485 l 1,17,-1
 216 424 l 1,18,-1
 191 138 l 1,19,-1
 90 45 l 1,13,-1
185 969 m 1,20,-1
 219 1000 l 1,21,-1
 684 1000 l 1,22,-1
 713 969 l 1,23,-1
 612 876 l 1,24,-1
 270 876 l 1,25,-1
 185 969 l 1,20,-1
631 31 m 1,26,-1
 597 0 l 1,27,-1
 132 0 l 1,28,-1
 103 31 l 1,29,-1
 204 124 l 1,30,-1
 546 124 l 1,31,-1
 631 31 l 1,26,-1
EndSplineSet
EndChar

StartChar: f
Encoding: 102 102 50
Width: 816
GlyphClass: 1
Flags: W
LayerCount: 2
Fore
SplineSet
583 562 m 1,0,-1
 640 499 l 1,1,-1
 573 438 l 1,2,-1
 232 438 l 1,3,-1
 175 500 l 1,4,-1
 243 562 l 1,5,-1
 583 562 l 1,0,-1
162 515 m 1,6,-1
 157 510 l 1,7,-1
 100 510 l 1,8,-1
 136 924 l 1,9,-1
 170 955 l 1,10,-1
 254 862 l 1,11,-1
 229 576 l 1,12,-1
 162 515 l 1,6,-1
90 45 m 1,13,-1
 62 76 l 1,14,-1
 98 490 l 1,15,-1
 156 490 l 1,16,-1
 160 485 l 1,17,-1
 216 424 l 1,18,-1
 191 138 l 1,19,-1
 90 45 l 1,13,-1
185 969 m 1,20,-1
 219 1000 l 1,21,-1
 684 1000 l 1,22,-1
 713 969 l 1,23,-1
 612 876 l 1,24,-1
 270 876 l 1,25,-1
 185 969 l 1,20,-1
EndSplineSet
EndChar

StartChar: g
Encoding: 103 103 51
Width: 816
GlyphClass: 1
Flags: W
LayerCount: 2
Fore
SplineSet
162 515 m 1,0,-1
 157 510 l 1,1,-1
 100 510 l 1,2,-1
 136 924 l 1,3,-1
 170 955 l 1,4,-1
 254 862 l 1,5,-1
 229 576 l 1,6,-1
 162 515 l 1,0,-1
90 45 m 1,7,-1
 62 76 l 1,8,-1
 98 490 l 1,9,-1
 156 490 l 1,10,-1
 160 485 l 1,11,-1
 216 424 l 1,12,-1
 191 138 l 1,13,-1
 90 45 l 1,7,-1
185 969 m 1,14,-1
 219 1000 l 1,15,-1
 684 1000 l 1,16,-1
 713 969 l 1,17,-1
 612 876 l 1,18,-1
 270 876 l 1,19,-1
 185 969 l 1,14,-1
653 485 m 1,20,-1
 658 489 l 1,21,-1
 716 489 l 1,22,-1
 680 76 l 1,23,-1
 646 45 l 1,24,-1
 562 138 l 1,25,-1
 587 424 l 1,26,-1
 653 485 l 1,20,-1
631 31 m 1,27,-1
 597 0 l 1,28,-1
 132 0 l 1,29,-1
 103 31 l 1,30,-1
 204 124 l 1,31,-1
 546 124 l 1,32,-1
 631 31 l 1,27,-1
EndSplineSet
EndChar

StartChar: h
Encoding: 104 104 52
Width: 816
GlyphClass: 1
Flags: W
LayerCount: 2
Fore
SplineSet
583 562 m 1,0,-1
 640 499 l 1,1,-1
 573 438 l 1,2,-1
 232 438 l 1,3,-1
 175 500 l 1,4,-1
 243 562 l 1,5,-1
 583 562 l 1,0,-1
162 515 m 1,6,-1
 157 510 l 1,7,-1
 100 510 l 1,8,-1
 136 924 l 1,9,-1
 170 955 l 1,10,-1
 254 862 l 1,11,-1
 229 576 l 1,12,-1
 162 515 l 1,6,-1
90 45 m 1,13,-1
 62 76 l 1,14,-1
 98 490 l 1,15,-1
 156 490 l 1,16,-1
 160 485 l 1,17,-1
 216 424 l 1,18,-1
 191 138 l 1,19,-1
 90 45 l 1,13,-1
653 485 m 1,20,-1
 658 489 l 1,21,-1
 716 489 l 1,22,-1
 680 76 l 1,23,-1
 646 45 l 1,24,-1
 562 138 l 1,25,-1
 587 424 l 1,26,-1
 653 485 l 1,20,-1
EndSplineSet
EndChar

StartChar: i
Encoding: 105 105 53
Width: 816
GlyphClass: 1
Flags: W
LayerCount: 2
Fore
SplineSet
653 485 m 1,0,-1
 658 489 l 1,1,-1
 716 489 l 1,2,-1
 680 76 l 1,3,-1
 646 45 l 1,4,-1
 562 138 l 1,5,-1
 587 424 l 1,6,-1
 653 485 l 1,0,-1
EndSplineSet
EndChar

StartChar: j
Encoding: 106 106 54
Width: 816
GlyphClass: 1
Flags: W
LayerCount: 2
Fore
SplineSet
90 45 m 1,0,-1
 62 76 l 1,1,-1
 98 490 l 1,2,-1
 156 490 l 1,3,-1
 160 485 l 1,4,-1
 216 424 l 1,5,-1
 191 138 l 1,6,-1
 90 45 l 1,0,-1
653 485 m 1,7,-1
 658 489 l 1,8,-1
 716 489 l 1,9,-1
 680 76 l 1,10,-1
 646 45 l 1,11,-1
 562 138 l 1,12,-1
 587 424 l 1,13,-1
 653 485 l 1,7,-1
726 955 m 1,14,-1
 754 924 l 1,15,-1
 718 510 l 1,16,-1
 660 510 l 1,17,-1
 656 514 l 1,18,-1
 600 575 l 1,19,-1
 625 862 l 1,20,-1
 726 955 l 1,14,-1
631 31 m 1,21,-1
 597 0 l 1,22,-1
 132 0 l 1,23,-1
 103 31 l 1,24,-1
 204 124 l 1,25,-1
 546 124 l 1,26,-1
 631 31 l 1,21,-1
EndSplineSet
EndChar

StartChar: k
Encoding: 107 107 55
Width: 816
GlyphClass: 1
Flags: W
LayerCount: 2
Fore
SplineSet
583 562 m 1,0,-1
 640 499 l 1,1,-1
 573 438 l 1,2,-1
 232 438 l 1,3,-1
 175 500 l 1,4,-1
 243 562 l 1,5,-1
 583 562 l 1,0,-1
162 515 m 1,6,-1
 157 510 l 1,7,-1
 100 510 l 1,8,-1
 136 924 l 1,9,-1
 170 955 l 1,10,-1
 254 862 l 1,11,-1
 229 576 l 1,12,-1
 162 515 l 1,6,-1
90 45 m 1,13,-1
 62 76 l 1,14,-1
 98 490 l 1,15,-1
 156 490 l 1,16,-1
 160 485 l 1,17,-1
 216 424 l 1,18,-1
 191 138 l 1,19,-1
 90 45 l 1,13,-1
185 969 m 1,20,-1
 219 1000 l 1,21,-1
 684 1000 l 1,22,-1
 713 969 l 1,23,-1
 612 876 l 1,24,-1
 270 876 l 1,25,-1
 185 969 l 1,20,-1
653 485 m 1,26,-1
 658 489 l 1,27,-1
 716 489 l 1,28,-1
 680 76 l 1,29,-1
 646 45 l 1,30,-1
 562 138 l 1,31,-1
 587 424 l 1,32,-1
 653 485 l 1,26,-1
EndSplineSet
EndChar

StartChar: l
Encoding: 108 108 56
Width: 816
GlyphClass: 1
Flags: W
LayerCount: 2
Fore
SplineSet
162 515 m 1,0,-1
 157 510 l 1,1,-1
 100 510 l 1,2,-1
 136 924 l 1,3,-1
 170 955 l 1,4,-1
 254 862 l 1,5,-1
 229 576 l 1,6,-1
 162 515 l 1,0,-1
90 45 m 1,7,-1
 62 76 l 1,8,-1
 98 490 l 1,9,-1
 156 490 l 1,10,-1
 160 485 l 1,11,-1
 216 424 l 1,12,-1
 191 138 l 1,13,-1
 90 45 l 1,7,-1
631 31 m 1,14,-1
 597 0 l 1,15,-1
 132 0 l 1,16,-1
 103 31 l 1,17,-1
 204 124 l 1,18,-1
 546 124 l 1,19,-1
 631 31 l 1,14,-1
EndSplineSet
EndChar

StartChar: m
Encoding: 109 109 57
Width: 816
GlyphClass: 1
Flags: W
LayerCount: 2
Fore
SplineSet
162 515 m 1,0,-1
 157 510 l 1,1,-1
 100 510 l 1,2,-1
 136 924 l 1,3,-1
 170 955 l 1,4,-1
 254 862 l 1,5,-1
 229 576 l 1,6,-1
 162 515 l 1,0,-1
90 45 m 1,7,-1
 62 76 l 1,8,-1
 98 490 l 1,9,-1
 156 490 l 1,10,-1
 160 485 l 1,11,-1
 216 424 l 1,12,-1
 191 138 l 1,13,-1
 90 45 l 1,7,-1
185 969 m 1,14,-1
 219 1000 l 1,15,-1
 684 1000 l 1,16,-1
 713 969 l 1,17,-1
 612 876 l 1,18,-1
 270 876 l 1,19,-1
 185 969 l 1,14,-1
653 485 m 1,20,-1
 658 489 l 1,21,-1
 716 489 l 1,22,-1
 680 76 l 1,23,-1
 646 45 l 1,24,-1
 562 138 l 1,25,-1
 587 424 l 1,26,-1
 653 485 l 1,20,-1
726 955 m 1,27,-1
 754 924 l 1,28,-1
 718 510 l 1,29,-1
 660 510 l 1,30,-1
 656 514 l 1,31,-1
 600 575 l 1,32,-1
 625 862 l 1,33,-1
 726 955 l 1,27,-1
EndSplineSet
EndChar

StartChar: n
Encoding: 110 110 58
Width: 816
GlyphClass: 1
Flags: W
LayerCount: 2
Fore
SplineSet
583 562 m 1,0,-1
 640 499 l 1,1,-1
 573 438 l 1,2,-1
 232 438 l 1,3,-1
 175 500 l 1,4,-1
 243 562 l 1,5,-1
 583 562 l 1,0,-1
90 45 m 1,6,-1
 62 76 l 1,7,-1
 98 490 l 1,8,-1
 156 490 l 1,9,-1
 160 485 l 1,10,-1
 216 424 l 1,11,-1
 191 138 l 1,12,-1
 90 45 l 1,6,-1
653 485 m 1,13,-1
 658 489 l 1,14,-1
 716 489 l 1,15,-1
 680 76 l 1,16,-1
 646 45 l 1,17,-1
 562 138 l 1,18,-1
 587 424 l 1,19,-1
 653 485 l 1,13,-1
EndSplineSet
EndChar

StartChar: o
Encoding: 111 111 59
Width: 816
GlyphClass: 1
Flags: W
LayerCount: 2
Fore
SplineSet
583 562 m 1,0,-1
 640 499 l 1,1,-1
 573 438 l 1,2,-1
 232 438 l 1,3,-1
 175 500 l 1,4,-1
 243 562 l 1,5,-1
 583 562 l 1,0,-1
90 45 m 1,6,-1
 62 76 l 1,7,-1
 98 490 l 1,8,-1
 156 490 l 1,9,-1
 160 485 l 1,10,-1
 216 424 l 1,11,-1
 191 138 l 1,12,-1
 90 45 l 1,6,-1
653 485 m 1,13,-1
 658 489 l 1,14,-1
 716 489 l 1,15,-1
 680 76 l 1,16,-1
 646 45 l 1,17,-1
 562 138 l 1,18,-1
 587 424 l 1,19,-1
 653 485 l 1,13,-1
631 31 m 1,20,-1
 597 0 l 1,21,-1
 132 0 l 1,22,-1
 103 31 l 1,23,-1
 204 124 l 1,24,-1
 546 124 l 1,25,-1
 631 31 l 1,20,-1
EndSplineSet
EndChar

StartChar: p
Encoding: 112 112 60
Width: 816
GlyphClass: 1
Flags: W
LayerCount: 2
Fore
SplineSet
583 562 m 1,0,-1
 640 499 l 1,1,-1
 573 438 l 1,2,-1
 232 438 l 1,3,-1
 175 500 l 1,4,-1
 243 562 l 1,5,-1
 583 562 l 1,0,-1
162 515 m 1,6,-1
 157 510 l 1,7,-1
 100 510 l 1,8,-1
 136 924 l 1,9,-1
 170 955 l 1,10,-1
 254 862 l 1,11,-1
 229 576 l 1,12,-1
 162 515 l 1,6,-1
90 45 m 1,13,-1
 62 76 l 1,14,-1
 98 490 l 1,15,-1
 156 490 l 1,16,-1
 160 485 l 1,17,-1
 216 424 l 1,18,-1
 191 138 l 1,19,-1
 90 45 l 1,13,-1
185 969 m 1,20,-1
 219 1000 l 1,21,-1
 684 1000 l 1,22,-1
 713 969 l 1,23,-1
 612 876 l 1,24,-1
 270 876 l 1,25,-1
 185 969 l 1,20,-1
726 955 m 1,26,-1
 754 924 l 1,27,-1
 718 510 l 1,28,-1
 660 510 l 1,29,-1
 656 514 l 1,30,-1
 600 575 l 1,31,-1
 625 862 l 1,32,-1
 726 955 l 1,26,-1
EndSplineSet
EndChar

StartChar: q
Encoding: 113 113 61
Width: 816
GlyphClass: 1
Flags: W
LayerCount: 2
Fore
SplineSet
583 562 m 1,0,-1
 640 499 l 1,1,-1
 573 438 l 1,2,-1
 232 438 l 1,3,-1
 175 500 l 1,4,-1
 243 562 l 1,5,-1
 583 562 l 1,0,-1
162 515 m 1,6,-1
 157 510 l 1,7,-1
 100 510 l 1,8,-1
 136 924 l 1,9,-1
 170 955 l 1,10,-1
 254 862 l 1,11,-1
 229 576 l 1,12,-1
 162 515 l 1,6,-1
185 969 m 1,13,-1
 219 1000 l 1,14,-1
 684 1000 l 1,15,-1
 713 969 l 1,16,-1
 612 876 l 1,17,-1
 270 876 l 1,18,-1
 185 969 l 1,13,-1
653 485 m 1,19,-1
 658 489 l 1,20,-1
 716 489 l 1,21,-1
 680 76 l 1,22,-1
 646 45 l 1,23,-1
 562 138 l 1,24,-1
 587 424 l 1,25,-1
 653 485 l 1,19,-1
726 955 m 1,26,-1
 754 924 l 1,27,-1
 718 510 l 1,28,-1
 660 510 l 1,29,-1
 656 514 l 1,30,-1
 600 575 l 1,31,-1
 625 862 l 1,32,-1
 726 955 l 1,26,-1
EndSplineSet
EndChar

StartChar: r
Encoding: 114 114 62
Width: 816
GlyphClass: 1
Flags: W
LayerCount: 2
Fore
SplineSet
583 562 m 1,0,-1
 640 499 l 1,1,-1
 573 438 l 1,2,-1
 232 438 l 1,3,-1
 175 500 l 1,4,-1
 243 562 l 1,5,-1
 583 562 l 1,0,-1
90 45 m 1,6,-1
 62 76 l 1,7,-1
 98 490 l 1,8,-1
 156 490 l 1,9,-1
 160 485 l 1,10,-1
 216 424 l 1,11,-1
 191 138 l 1,12,-1
 90 45 l 1,6,-1
EndSplineSet
EndChar

StartChar: s
Encoding: 115 115 63
Width: 816
GlyphClass: 1
Flags: W
LayerCount: 2
Fore
SplineSet
583 562 m 1,0,-1
 640 499 l 1,1,-1
 573 438 l 1,2,-1
 232 438 l 1,3,-1
 175 500 l 1,4,-1
 243 562 l 1,5,-1
 583 562 l 1,0,-1
162 515 m 1,6,-1
 157 510 l 1,7,-1
 100 510 l 1,8,-1
 136 924 l 1,9,-1
 170 955 l 1,10,-1
 254 862 l 1,11,-1
 229 576 l 1,12,-1
 162 515 l 1,6,-1
653 485 m 1,13,-1
 658 489 l 1,14,-1
 716 489 l 1,15,-1
 680 76 l 1,16,-1
 646 45 l 1,17,-1
 562 138 l 1,18,-1
 587 424 l 1,19,-1
 653 485 l 1,13,-1
631 31 m 1,20,-1
 597 0 l 1,21,-1
 132 0 l 1,22,-1
 103 31 l 1,23,-1
 204 124 l 1,24,-1
 546 124 l 1,25,-1
 631 31 l 1,20,-1
EndSplineSet
EndChar

StartChar: t
Encoding: 116 116 64
Width: 816
GlyphClass: 1
Flags: W
LayerCount: 2
Fore
SplineSet
583 562 m 1,0,-1
 640 499 l 1,1,-1
 573 438 l 1,2,-1
 232 438 l 1,3,-1
 175 500 l 1,4,-1
 243 562 l 1,5,-1
 583 562 l 1,0,-1
162 515 m 1,6,-1
 157 510 l 1,7,-1
 100 510 l 1,8,-1
 136 924 l 1,9,-1
 170 955 l 1,10,-1
 254 862 l 1,11,-1
 229 576 l 1,12,-1
 162 515 l 1,6,-1
90 45 m 1,13,-1
 62 76 l 1,14,-1
 98 490 l 1,15,-1
 156 490 l 1,16,-1
 160 485 l 1,17,-1
 216 424 l 1,18,-1
 191 138 l 1,19,-1
 90 45 l 1,13,-1
631 31 m 1,20,-1
 597 0 l 1,21,-1
 132 0 l 1,22,-1
 103 31 l 1,23,-1
 204 124 l 1,24,-1
 546 124 l 1,25,-1
 631 31 l 1,20,-1
EndSplineSet
EndChar

StartChar: u
Encoding: 117 117 65
Width: 816
GlyphClass: 1
Flags: W
LayerCount: 2
Fore
SplineSet
90 45 m 1,0,-1
 62 76 l 1,1,-1
 98 490 l 1,2,-1
 156 490 l 1,3,-1
 160 485 l 1,4,-1
 216 424 l 1,5,-1
 191 138 l 1,6,-1
 90 45 l 1,0,-1
653 485 m 1,7,-1
 658 489 l 1,8,-1
 716 489 l 1,9,-1
 680 76 l 1,10,-1
 646 45 l 1,11,-1
 562 138 l 1,12,-1
 587 424 l 1,13,-1
 653 485 l 1,7,-1
631 31 m 1,14,-1
 597 0 l 1,15,-1
 132 0 l 1,16,-1
 103 31 l 1,17,-1
 204 124 l 1,18,-1
 546 124 l 1,19,-1
 631 31 l 1,14,-1
EndSplineSet
EndChar

StartChar: v
Encoding: 118 118 66
Width: 816
GlyphClass: 1
Flags: W
LayerCount: 2
Fore
SplineSet
162 515 m 1,0,-1
 157 510 l 1,1,-1
 100 510 l 1,2,-1
 136 924 l 1,3,-1
 170 955 l 1,4,-1
 254 862 l 1,5,-1
 229 576 l 1,6,-1
 162 515 l 1,0,-1
90 45 m 1,7,-1
 62 76 l 1,8,-1
 98 490 l 1,9,-1
 156 490 l 1,10,-1
 160 485 l 1,11,-1
 216 424 l 1,12,-1
 191 138 l 1,13,-1
 90 45 l 1,7,-1
653 485 m 1,14,-1
 658 489 l 1,15,-1
 716 489 l 1,16,-1
 680 76 l 1,17,-1
 646 45 l 1,18,-1
 562 138 l 1,19,-1
 587 424 l 1,20,-1
 653 485 l 1,14,-1
726 955 m 1,21,-1
 754 924 l 1,22,-1
 718 510 l 1,23,-1
 660 510 l 1,24,-1
 656 514 l 1,25,-1
 600 575 l 1,26,-1
 625 862 l 1,27,-1
 726 955 l 1,21,-1
631 31 m 1,28,-1
 597 0 l 1,29,-1
 132 0 l 1,30,-1
 103 31 l 1,31,-1
 204 124 l 1,32,-1
 546 124 l 1,33,-1
 631 31 l 1,28,-1
EndSplineSet
EndChar

StartChar: w
Encoding: 119 119 67
Width: 816
GlyphClass: 1
Flags: W
LayerCount: 2
Fore
SplineSet
583 562 m 1,0,-1
 640 499 l 1,1,-1
 573 438 l 1,2,-1
 232 438 l 1,3,-1
 175 500 l 1,4,-1
 243 562 l 1,5,-1
 583 562 l 1,0,-1
162 515 m 1,6,-1
 157 510 l 1,7,-1
 100 510 l 1,8,-1
 136 924 l 1,9,-1
 170 955 l 1,10,-1
 254 862 l 1,11,-1
 229 576 l 1,12,-1
 162 515 l 1,6,-1
90 45 m 1,13,-1
 62 76 l 1,14,-1
 98 490 l 1,15,-1
 156 490 l 1,16,-1
 160 485 l 1,17,-1
 216 424 l 1,18,-1
 191 138 l 1,19,-1
 90 45 l 1,13,-1
653 485 m 1,20,-1
 658 489 l 1,21,-1
 716 489 l 1,22,-1
 680 76 l 1,23,-1
 646 45 l 1,24,-1
 562 138 l 1,25,-1
 587 424 l 1,26,-1
 653 485 l 1,20,-1
726 955 m 1,27,-1
 754 924 l 1,28,-1
 718 510 l 1,29,-1
 660 510 l 1,30,-1
 656 514 l 1,31,-1
 600 575 l 1,32,-1
 625 862 l 1,33,-1
 726 955 l 1,27,-1
631 31 m 1,34,-1
 597 0 l 1,35,-1
 132 0 l 1,36,-1
 103 31 l 1,37,-1
 204 124 l 1,38,-1
 546 124 l 1,39,-1
 631 31 l 1,34,-1
EndSplineSet
EndChar

StartChar: x
Encoding: 120 120 68
Width: 816
GlyphClass: 1
Flags: W
LayerCount: 2
Fore
SplineSet
583 562 m 1,0,-1
 640 499 l 1,1,-1
 573 438 l 1,2,-1
 232 438 l 1,3,-1
 175 500 l 1,4,-1
 243 562 l 1,5,-1
 583 562 l 1,0,-1
162 515 m 1,6,-1
 157 510 l 1,7,-1
 100 510 l 1,8,-1
 136 924 l 1,9,-1
 170 955 l 1,10,-1
 254 862 l 1,11,-1
 229 576 l 1,12,-1
 162 515 l 1,6,-1
90 45 m 1,13,-1
 62 76 l 1,14,-1
 98 490 l 1,15,-1
 156 490 l 1,16,-1
 160 485 l 1,17,-1
 216 424 l 1,18,-1
 191 138 l 1,19,-1
 90 45 l 1,13,-1
653 485 m 1,20,-1
 658 489 l 1,21,-1
 716 489 l 1,22,-1
 680 76 l 1,23,-1
 646 45 l 1,24,-1
 562 138 l 1,25,-1
 587 424 l 1,26,-1
 653 485 l 1,20,-1
726 955 m 1,27,-1
 754 924 l 1,28,-1
 718 510 l 1,29,-1
 660 510 l 1,30,-1
 656 514 l 1,31,-1
 600 575 l 1,32,-1
 625 862 l 1,33,-1
 726 955 l 1,27,-1
EndSplineSet
EndChar

StartChar: y
Encoding: 121 121 69
Width: 816
GlyphClass: 1
Flags: W
LayerCount: 2
Fore
SplineSet
583 562 m 1,0,-1
 640 499 l 1,1,-1
 573 438 l 1,2,-1
 232 438 l 1,3,-1
 175 500 l 1,4,-1
 243 562 l 1,5,-1
 583 562 l 1,0,-1
162 515 m 1,6,-1
 157 510 l 1,7,-1
 100 510 l 1,8,-1
 136 924 l 1,9,-1
 170 955 l 1,10,-1
 254 862 l 1,11,-1
 229 576 l 1,12,-1
 162 515 l 1,6,-1
653 485 m 1,13,-1
 658 489 l 1,14,-1
 716 489 l 1,15,-1
 680 76 l 1,16,-1
 646 45 l 1,17,-1
 562 138 l 1,18,-1
 587 424 l 1,19,-1
 653 485 l 1,13,-1
726 955 m 1,20,-1
 754 924 l 1,21,-1
 718 510 l 1,22,-1
 660 510 l 1,23,-1
 656 514 l 1,24,-1
 600 575 l 1,25,-1
 625 862 l 1,26,-1
 726 955 l 1,20,-1
631 31 m 1,27,-1
 597 0 l 1,28,-1
 132 0 l 1,29,-1
 103 31 l 1,30,-1
 204 124 l 1,31,-1
 546 124 l 1,32,-1
 631 31 l 1,27,-1
EndSplineSet
EndChar

StartChar: z
Encoding: 122 122 70
Width: 816
GlyphClass: 1
Flags: W
LayerCount: 2
Fore
SplineSet
90 45 m 1,0,-1
 62 76 l 1,1,-1
 98 490 l 1,2,-1
 156 490 l 1,3,-1
 160 485 l 1,4,-1
 216 424 l 1,5,-1
 191 138 l 1,6,-1
 90 45 l 1,0,-1
185 969 m 1,7,-1
 219 1000 l 1,8,-1
 684 1000 l 1,9,-1
 713 969 l 1,10,-1
 612 876 l 1,11,-1
 270 876 l 1,12,-1
 185 969 l 1,7,-1
726 955 m 1,13,-1
 754 924 l 1,14,-1
 718 510 l 1,15,-1
 660 510 l 1,16,-1
 656 514 l 1,17,-1
 600 575 l 1,18,-1
 625 862 l 1,19,-1
 726 955 l 1,13,-1
631 31 m 1,20,-1
 597 0 l 1,21,-1
 132 0 l 1,22,-1
 103 31 l 1,23,-1
 204 124 l 1,24,-1
 546 124 l 1,25,-1
 631 31 l 1,20,-1
EndSplineSet
EndChar

StartChar: degree
Encoding: 176 176 71
Width: 816
GlyphClass: 1
Flags: W
LayerCount: 2
Fore
SplineSet
583 562 m 1,0,-1
 640 499 l 1,1,-1
 573 438 l 1,2,-1
 232 438 l 1,3,-1
 175 500 l 1,4,-1
 243 562 l 1,5,-1
 583 562 l 1,0,-1
162 515 m 1,6,-1
 157 510 l 1,7,-1
 100 510 l 1,8,-1
 136 924 l 1,9,-1
 170 955 l 1,10,-1
 254 862 l 1,11,-1
 229 576 l 1,12,-1
 162 515 l 1,6,-1
185 969 m 1,13,-1
 219 1000 l 1,14,-1
 684 1000 l 1,15,-1
 713 969 l 1,16,-1
 612 876 l 1,17,-1
 270 876 l 1,18,-1
 185 969 l 1,13,-1
726 955 m 1,19,-1
 754 924 l 1,20,-1
 718 510 l 1,21,-1
 660 510 l 1,22,-1
 656 514 l 1,23,-1
 600 575 l 1,24,-1
 625 862 l 1,25,-1
 726 955 l 1,19,-1
EndSplineSet
EndChar
